<svg xmlns="http://www.w3.org/2000/svg" xmlns:xlink="http://www.w3.org/1999/xlink" viewBox="0 0 200.74 191.34"><defs><style>.a{fill:none;}.b{clip-path:url(#a);}.c{fill:url(#b);}.d{clip-path:url(#c);}.e{fill:url(#d);}</style><clipPath id="a" transform="translate(-4.59 -3.94)"><polygon class="a" points="183.27 50.96 101.89 4.66 101.89 194.91 134.44 176.11 134.44 122.58 159.03 136.68 158.67 100.15 134.44 86.04 134.44 64.7 183.27 93.28 183.27 50.96"/></clipPath><linearGradient id="b" x1="5.67" y1="-201.61" x2="205.33" y2="-201.61" gradientTransform="matrix(1, 0, 0, -1, 0, -102)" gradientUnits="userSpaceOnUse"><stop offset="0" stop-color="#ff6f00"/><stop offset="1" stop-color="#ffa800"/></linearGradient><clipPath id="c" transform="translate(-4.59 -3.94)"><polygon class="a" points="13.27 50.96 94.65 4.66 94.65 194.91 62.1 176.11 62.1 64.7 13.27 93.28 13.27 50.96"/></clipPath><linearGradient id="d" x1="4.59" y1="-201.61" x2="204.25" y2="-201.61" xlink:href="#b"/></defs><g class="b"><path class="c" d="M5.67,3.94H205.33V195.28H5.67Z" transform="translate(-4.59 -3.94)"/></g><g class="d"><path class="e" d="M4.59,3.94H204.25V195.28H4.59Z" transform="translate(-4.59 -3.94)"/></g></svg>